<?xml version="1.0" standalone="no"?>
<!DOCTYPE svg PUBLIC "-//W3C//DTD SVG 20010904//EN"
 "http://www.w3.org/TR/2001/REC-SVG-20010904/DTD/svg10.dtd">
<svg version="1.0" xmlns="http://www.w3.org/2000/svg"
 width="256.000000pt" height="256.000000pt" viewBox="0 0 256.000000 256.000000"
 preserveAspectRatio="xMidYMid meet">
<metadata>
Created by potrace 1.14, written by Peter Selinger 2001-2017
</metadata>
<g transform="translate(0.000000,256.000000) scale(0.100000,-0.100000)"
fill="#000000" stroke="none">
<path d="M1273 2553 c9 -2 25 -2 35 0 9 3 1 5 -18 5 -19 0 -27 -2 -17 -5z"/>
<path d="M873 2493 c-13 -3 -36 -18 -53 -34 -25 -26 -30 -38 -30 -81 0 -43 4
-54 30 -78 51 -47 112 -48 162 -2 85 78 7 216 -109 195z m81 -54 c54 -42 19
-139 -50 -139 -74 0 -110 87 -58 135 33 30 73 32 108 4z"/>
<path d="M144 2254 c-57 -28 -79 -96 -50 -153 37 -72 120 -84 180 -27 30 28
36 40 36 75 0 93 -84 146 -166 105z m107 -43 c31 -25 32 -83 1 -113 -25 -26
-81 -30 -107 -8 -39 32 -38 97 2 128 25 18 77 15 104 -7z"/>
<path d="M1434 2256 c-77 -34 -100 -128 -44 -184 52 -53 122 -51 170 5 36 40
39 83 10 131 -11 18 -36 40 -55 48 -41 17 -42 17 -81 0z m88 -40 c60 -45 30
-145 -44 -146 -40 0 -57 9 -74 42 -18 36 -12 70 18 98 25 23 74 26 100 6z"/>
<path d="M613 1923 c-13 -2 -36 -18 -53 -34 -25 -25 -30 -39 -30 -77 0 -38 5
-52 32 -79 21 -22 27 -33 17 -33 -20 0 -65 -49 -72 -79 -10 -39 4 -79 36 -111
43 -42 102 -42 150 0 54 47 56 113 6 166 -20 21 -20 21 6 38 107 70 35 234
-92 209z m84 -55 c33 -31 32 -90 -3 -117 -47 -37 -102 -24 -124 29 -14 34 0
83 29 100 28 16 74 11 98 -12z m-47 -198 c20 0 50 -45 50 -74 -1 -103 -158
-107 -160 -4 0 14 3 34 6 43 8 20 63 46 82 40 8 -3 18 -5 22 -5z"/>
<path d="M879 1883 c-54 -33 -73 -97 -45 -152 38 -73 126 -85 182 -25 27 28
34 44 34 75 0 91 -96 149 -171 102z m112 -42 c56 -45 6 -151 -64 -137 -37 7
-56 23 -68 53 -10 27 4 72 28 91 25 18 77 15 104 -7z"/>
<path d="M1769 1765 c-38 -21 -59 -58 -59 -106 0 -35 6 -47 36 -75 28 -27 44
-34 75 -34 47 0 84 22 105 61 51 100 -59 208 -157 154z m97 -34 c82 -50 14
-181 -73 -139 -60 29 -65 105 -9 139 38 23 44 23 82 0z"/>
<path d="M343 1528 c-55 -58 -55 -114 0 -167 45 -44 104 -44 152 2 51 48 51
113 1 163 -28 28 -41 34 -78 34 -37 0 -49 -5 -75 -32z m135 -31 c51 -47 10
-131 -65 -131 -81 0 -104 117 -29 150 36 15 62 10 94 -19z"/>
<path d="M752 1530 c-53 -52 -51 -122 5 -170 59 -52 148 -29 179 46 45 108
-101 207 -184 124z m111 -12 c32 -17 46 -39 46 -73 0 -56 -54 -94 -106 -74
-68 26 -73 112 -8 147 26 15 41 15 68 0z"/>
<path d="M1252 1497 c-26 -27 -32 -41 -32 -78 0 -25 6 -54 14 -64 13 -18 11
-21 -15 -37 -66 -40 -74 -126 -17 -180 24 -23 39 -28 78 -28 41 0 53 5 79 31
25 25 31 39 31 75 0 25 -7 55 -15 67 -13 21 -13 23 14 35 30 13 61 65 61 102
0 29 -26 76 -52 94 -12 9 -43 16 -68 16 -39 0 -51 -5 -78 -33z m140 -24 c25
-23 24 -87 -2 -113 -26 -26 -91 -27 -112 -2 -37 42 -29 108 15 130 28 14 75 7
99 -15z m-57 -198 c32 -31 32 -74 0 -109 -50 -53 -135 -17 -135 58 0 71 84
103 135 51z"/>
<path d="M1924 1476 c-29 -29 -34 -41 -34 -79 0 -104 121 -155 192 -79 49 52
48 111 -4 162 -24 24 -38 30 -75 30 -38 0 -50 -5 -79 -34z m139 -27 c43 -53 6
-129 -63 -129 -45 0 -80 35 -80 79 1 71 97 105 143 50z"/>
<path d="M2166 1329 c-58 -51 -58 -119 1 -173 42 -39 102 -36 149 7 30 27 35
39 36 76 1 104 -109 158 -186 90z m104 -9 c20 0 50 -45 50 -74 -1 -38 -18 -62
-54 -76 -70 -26 -128 40 -100 115 8 20 63 46 82 40 8 -3 18 -5 22 -5z"/>
<path d="M1890 1269 c-13 -6 -31 -16 -40 -23 -8 -7 -33 -18 -56 -24 -61 -17
-89 -53 -89 -112 0 -40 5 -54 29 -79 17 -17 38 -31 47 -31 27 0 32 -18 9 -30
-25 -13 -50 -61 -50 -95 0 -30 26 -85 40 -85 5 0 21 -17 35 -38 50 -76 131
-89 191 -31 28 27 34 40 34 76 0 37 -7 50 -51 100 -73 83 -87 93 -128 94 -28
1 -31 2 -14 7 13 4 31 15 42 24 11 9 35 20 54 23 73 14 116 99 83 163 -27 52
-88 79 -136 61z m84 -50 c34 -27 36 -82 4 -116 -31 -33 -48 -29 -48 12 0 24
-9 45 -32 70 -26 30 -29 38 -17 46 24 15 65 10 93 -12z m-164 -68 c0 -30 7
-46 29 -69 22 -22 27 -32 18 -41 -14 -14 -62 -14 -87 -1 -42 23 -44 105 -2
136 30 23 42 16 42 -25z m57 21 c15 -10 35 -61 27 -73 -10 -16 -23 -9 -39 21
-24 47 -19 72 12 52z m42 -237 c12 -12 10 -16 -15 -25 -39 -15 -64 -39 -79
-74 l-13 -30 -17 34 c-16 31 -16 36 -1 67 25 52 87 65 125 28z m31 -59 c0 -40
-71 -99 -92 -78 -11 11 6 50 31 69 15 12 61 18 61 9z m59 -46 c25 -74 -50
-137 -120 -100 -25 14 -24 30 2 30 24 0 89 63 89 86 0 25 18 15 29 -16z"/>
<path d="M583 1023 c-13 -2 -36 -18 -53 -34 -24 -25 -30 -39 -30 -73 0 -96
114 -158 181 -99 15 13 17 10 17 -29 1 -36 7 -48 36 -75 29 -27 44 -33 80 -33
36 0 50 6 74 30 16 16 33 41 36 56 4 15 21 41 37 58 24 24 29 38 29 76 0 39
-5 51 -32 77 -31 30 -56 38 -105 35 -31 -3 -81 -48 -88 -82 -3 -16 -13 -34
-21 -41 -12 -10 -14 -5 -14 28 0 66 -75 120 -147 106z m79 -47 c27 -20 39 -62
27 -93 -13 -35 -37 -52 -75 -53 -34 0 -71 29 -80 64 -6 26 17 81 38 89 25 10
73 6 90 -7z m266 -16 c30 -29 36 -62 18 -99 l-16 -31 -36 40 c-26 29 -44 40
-65 40 -37 0 -38 22 -3 49 34 27 74 27 102 1z m-89 -91 c17 -6 36 -20 42 -30
8 -16 6 -19 -13 -19 -21 0 -68 35 -68 52 0 10 1 10 39 -3z m16 -83 c19 -4 35
-9 35 -11 0 -33 -58 -70 -93 -59 -59 18 -87 85 -51 125 15 17 17 16 45 -16 18
-20 42 -35 64 -39z"/>
<path d="M1792 417 c-34 -35 -42 -70 -29 -120 6 -20 4 -28 -5 -26 -40 5 -64
-5 -94 -37 -27 -28 -34 -44 -34 -75 0 -91 93 -148 170 -103 51 30 75 98 50
143 -8 16 -4 19 31 24 101 13 139 125 67 197 -24 25 -38 30 -77 30 -40 0 -52
-5 -79 -33z m117 -12 c74 -38 44 -145 -40 -145 -84 0 -109 108 -34 148 27 15
41 15 74 -3z m-121 -181 c32 -22 43 -57 31 -94 -12 -34 -35 -50 -73 -50 -38 0
-55 10 -72 41 -18 36 -10 73 23 99 31 24 61 25 91 4z"/>
<path d="M524 294 c-31 -15 -64 -60 -64 -88 0 -9 -7 -16 -15 -16 -9 0 -27 -7
-41 -17 -14 -9 -38 -17 -55 -18 -16 -2 -40 -10 -54 -19 -52 -34 -73 -126 -31
-134 15 -3 18 0 13 18 -11 42 25 99 63 100 11 0 15 -12 15 -44 0 -48 17 -76
47 -76 18 0 18 2 4 22 -21 30 -22 90 -1 82 18 -7 38 -66 29 -87 -4 -13 -1 -17
15 -17 32 0 29 68 -4 108 -30 36 -30 38 -5 45 15 4 24 -2 35 -23 8 -16 28 -37
44 -46 31 -18 31 -34 3 -66 -14 -16 -13 -18 8 -18 25 0 49 25 50 53 0 11 8 17
24 17 32 0 86 54 87 88 3 74 -14 113 -62 138 -35 18 -66 18 -105 -2z m111 -59
c14 -13 25 -31 25 -39 0 -28 -22 -64 -47 -75 -22 -10 -29 -7 -69 34 -24 25
-44 50 -44 55 0 5 10 18 22 30 31 28 83 26 113 -5z"/>
<path d="M952 232 c-35 -33 -46 -63 -38 -107 7 -37 48 -83 83 -91 61 -16 125
22 142 82 29 107 -106 191 -187 116z m133 -32 c23 -23 26 -80 5 -105 -22 -27
-56 -35 -90 -24 -34 12 -50 35 -50 74 0 76 80 108 135 55z"/>
<path d="M2291 145 c-57 -48 -63 -145 -9 -145 17 0 19 3 10 12 -33 33 0 111
52 124 28 7 81 -18 90 -41 10 -27 7 -70 -6 -83 -9 -9 -6 -12 14 -12 49 0 46
90 -4 140 -40 40 -102 42 -147 5z"/>
<path d="M1542 34 c-12 -8 -22 -19 -22 -25 0 -12 47 -12 55 1 8 13 62 13 70 0
8 -12 55 -13 55 -1 0 36 -116 54 -158 25z"/>
</g>
</svg>
